<?xml version="1.0" encoding="utf-8"?>
<!-- Svg Vector Icons : http://www.onlinewebfonts.com/icon -->
<!DOCTYPE svg PUBLIC "-//W3C//DTD SVG 1.1//EN" "http://www.w3.org/Graphics/SVG/1.1/DTD/svg11.dtd">
<svg version="1.1" xmlns="http://www.w3.org/2000/svg" xmlns:xlink="http://www.w3.org/1999/xlink" x="0px" y="0px" viewBox="0 0 1000 1000" enable-background="new 0 0 1000 1000" xml:space="preserve">
<metadata> Svg Vector Icons : http://www.onlinewebfonts.com/icon </metadata>
<g><g transform="translate(0.000000,416.000000) scale(0.100000,-0.100000)"><path d="M4156.3,3137.2c-1034.6-46-1933.2-124.5-2084.6-182c-256.7-97.7-584.4-737.6-971.4-1900.6l-159-482.8l-228-11.5c-270.1-13.4-348.7-36.4-427.3-124.5c-46-53.6-57.5-84.3-57.5-157.1c0-105.4,82.4-295.1,180.1-415.8c34.5-42.2,69-86.2,76.6-99.6c5.8-13.4-21.1-162.9-63.2-335.3c-88.1-354.4-228-1034.6-289.3-1404.4c-49.8-295-44.1-467.5,24.9-684c63.2-199.2,166.7-375.5,302.7-521.1l113-122.6v-622.7c0-394.7,7.7-643.8,21.1-678.3c9.6-28.7,42.1-78.5,70.9-109.2c95.8-101.5,128.4-107.3,697.4-107.3c505.8,0,525,1.9,597.8,44.1c145.6,82.4,155.2,107.3,160.9,484.8l5.8,333.4h2873.9h2872v-316.1c0-356.4,9.6-392.8,128.4-482.8l69-53.6l519.2-5.7c285.5-3.8,548,0,582.4,5.7c86.2,15.3,208.8,130.3,233.8,216.5c11.5,42.2,19.2,327.6,19.2,680.2v611.2l111.1,120.7c210.8,229.9,335.3,511.6,360.2,808.5c9.6,115,0,214.6-38.3,438.8c-65.1,387-187.8,981-281.6,1366.1L9500-256l38.3,49.8c235.7,298.9,291.2,507.7,174.3,641.8c-78.5,88.1-157.1,111.1-427.3,124.5l-226.1,11.5l-159,479c-260.6,781.7-479,1299-676.3,1599.8c-99.6,149.4-224.2,275.9-302.7,306.6c-97.7,36.4-785.5,109.2-1484.9,153.3C6127.9,3131.5,4443.7,3150.6,4156.3,3137.2z M5947.8,2516.4c555.6-23,942.7-49.8,1379.5-95.8c281.6-28.7,348.7-42.2,369.8-70.9c51.7-67.1,197.3-375.5,298.9-626.5c88.1-218.4,413.8-1124.7,413.8-1151.5c0-5.7-1534.7-9.6-3410.4-9.6H1590.9L1725,960.7c172.4,503.9,375.5,1017.4,492.4,1237.7c105.4,201.2,72.8,187.8,511.6,229.9C3711.8,2524.1,4949.5,2558.6,5947.8,2516.4z M1889.8-1288.6c419.6-203.1,381.3-806.6-63.2-977.1c-122.6-46-321.9-28.7-434.9,38.3c-162.9,93.9-281.7,289.3-281.7,459.8c0,92,49.8,243.3,103.5,314.2C1372.5-1236.9,1646.4-1169.8,1889.8-1288.6z M8572.6-1275.2c44.1-19.2,113-67.1,153.3-107.3c212.7-214.6,205-576.7-17.3-772.1c-107.3-93.9-182-124.5-333.4-134.1c-126.5-7.7-149.4-3.8-264.4,53.6c-189.7,93.9-291.2,251-293.2,459.8c-1.9,141.8,24.9,231.8,99.6,327.6c78.6,103.4,139.9,147.5,264.4,191.6C8302.5-1212,8448.1-1219.7,8572.6-1275.2z M6687.3-1532c160.9-107.3,122.6-343-65.1-413.8c-74.7-28.7-3170.9-28.7-3245.6,0c-187.8,70.9-226.1,306.6-65.1,413.8l65.1,44.1h1622.8h1622.8L6687.3-1532z"/></g></g>
</svg>